# xmcd
#
# Track frame offsets:
#	150
#	10710
#	23130
#	33297
#	46112
#	56740
#	67750
#	78707
#	89670
#	99962
#	114177
#	124342
#	135735
#	147360
#	159312
#	171790
#
# Disc length: 2453 seconds
#
# Revision: 2
# Processed by: cddbd v1.4PL0 Copyright (c) Steve Scherf et al.
# Submitted via: MusicWizard 6.0.2
#
DISCID=c8099310
DTITLE=Jimmy Reed - Rockin' With Reed
DYEAR=1959
DGENRE=Blues
TTITLE0=Going To New York
TTITLE1=A String To Your Heart
TTITLE2=Ends and Odds
TTITLE3=Caress Me Baby
TTITLE4=Take Out Some Insurance
TTITLE5=The Moon Is Rising
TTITLE6=Down In Virginia
TTITLE7=I Know It's A Sin
TTITLE8=Wanna Be Loved
TTITLE9=Baby, What's On Your Mind
TTITLE10=My Bitter Seed
TTITLE11=Rockin' With Reed
TTITLE12=When You Left Me
TTITLE13=Honey, Where You Going
TTITLE14=I Don't Go For That
TTITLE15=Signals Of Love
EXTD=YEAR: 1959 ID3G:   0
EXTT0=
EXTT1=
EXTT2=
EXTT3=
EXTT4=
EXTT5=
EXTT6=
EXTT7=
EXTT8=
EXTT9=
EXTT10=
EXTT11=
EXTT12=
EXTT13=
EXTT14=
EXTT15=
PLAYORDER=
